<svg width="57" height="56" viewBox="0 0 57 56" fill="none" xmlns="http://www.w3.org/2000/svg">
<g filter="url(#filter0_d_2642_341)">
<rect x="6.00006" y="2" width="45" height="45" rx="12" fill="#039BFA"/>
</g>
<path d="M33.5532 27.9406L29.7657 24.5H27.2251L23.4376 27.9406C22.3782 28.8969 22.0313 30.3688 22.5469 31.7C23.0626 33.0219 24.3188 33.875 25.7344 33.875H31.2563C32.6813 33.875 33.9282 33.0219 34.4438 31.7C34.9594 30.3688 34.6126 28.8969 33.5532 27.9406ZM30.2063 30.2562H26.7938C26.4376 30.2562 26.1563 29.9656 26.1563 29.6187C26.1563 29.2719 26.4469 28.9813 26.7938 28.9813H30.2063C30.5626 28.9813 30.8438 29.2719 30.8438 29.6187C30.8438 29.9656 30.5532 30.2562 30.2063 30.2562Z" fill="white"/>
<path d="M34.4532 17.3C33.9376 15.9781 32.6813 15.125 31.2657 15.125H25.7344C24.3188 15.125 23.0626 15.9781 22.5469 17.3C22.0407 18.6313 22.3876 20.1031 23.4469 21.0594L27.2344 24.5H29.7751L33.5626 21.0594C34.6126 20.1031 34.9594 18.6313 34.4532 17.3ZM30.2063 20.0281H26.7938C26.4376 20.0281 26.1563 19.7375 26.1563 19.3906C26.1563 19.0438 26.4469 18.7531 26.7938 18.7531H30.2063C30.5626 18.7531 30.8438 19.0438 30.8438 19.3906C30.8438 19.7375 30.5532 20.0281 30.2063 20.0281Z" fill="white"/>
<defs>
<filter id="filter0_d_2642_341" x="0.500061" y="-2.38419e-07" width="56" height="56" filterUnits="userSpaceOnUse" color-interpolation-filters="sRGB">
<feFlood flood-opacity="0" result="BackgroundImageFix"/>
<feColorMatrix in="SourceAlpha" type="matrix" values="0 0 0 0 0 0 0 0 0 0 0 0 0 0 0 0 0 0 127 0" result="hardAlpha"/>
<feOffset dy="3.5"/>
<feGaussianBlur stdDeviation="2.75"/>
<feColorMatrix type="matrix" values="0 0 0 0 0 0 0 0 0 0 0 0 0 0 0 0 0 0 0.02 0"/>
<feBlend mode="normal" in2="BackgroundImageFix" result="effect1_dropShadow_2642_341"/>
<feBlend mode="normal" in="SourceGraphic" in2="effect1_dropShadow_2642_341" result="shape"/>
</filter>
</defs>
</svg>
