<svg width="56" height="56" viewBox="0 0 56 56" fill="none" xmlns="http://www.w3.org/2000/svg">
<g filter="url(#filter0_d_2569_5222)">
<rect x="5.50006" y="2" width="45" height="45" rx="12" fill="#039BFA"/>
</g>
<path d="M25.1876 15.125C22.7313 15.125 20.7344 17.1219 20.7344 19.5781C20.7344 21.9875 22.6188 23.9375 25.0751 24.0219C25.1501 24.0125 25.2251 24.0125 25.2813 24.0219C25.3001 24.0219 25.3094 24.0219 25.3282 24.0219C25.3376 24.0219 25.3376 24.0219 25.3469 24.0219C27.7469 23.9375 29.6313 21.9875 29.6407 19.5781C29.6407 17.1219 27.6438 15.125 25.1876 15.125Z" fill="white"/>
<path d="M29.9501 26.5156C27.3345 24.7718 23.0688 24.7718 20.4345 26.5156C19.2438 27.3125 18.5876 28.3906 18.5876 29.5437C18.5876 30.6968 19.2438 31.7656 20.4251 32.5531C21.7376 33.4343 23.4626 33.875 25.1876 33.875C26.9126 33.875 28.6376 33.4343 29.9501 32.5531C31.1313 31.7562 31.7876 30.6875 31.7876 29.525C31.7782 28.3718 31.1313 27.3031 29.9501 26.5156Z" fill="white"/>
<path d="M35.4907 20.1312C35.6407 21.95 34.347 23.5437 32.5563 23.7593C32.547 23.7593 32.547 23.7593 32.5376 23.7593H32.5095C32.4532 23.7593 32.397 23.7593 32.3501 23.7781C31.4407 23.825 30.6063 23.5343 29.9782 23C30.9438 22.1375 31.497 20.8437 31.3845 19.4375C31.3188 18.6781 31.0563 17.9843 30.6626 17.3937C31.0188 17.2156 31.4313 17.1031 31.8532 17.0656C33.6907 16.9062 35.3313 18.275 35.4907 20.1312Z" fill="white"/>
<path d="M37.3657 28.8031C37.2907 29.7125 36.7094 30.5 35.7344 31.0344C34.7969 31.55 33.6157 31.7938 32.4438 31.7656C33.1188 31.1563 33.5125 30.3969 33.5875 29.5906C33.6813 28.4281 33.1282 27.3125 32.0219 26.4219C31.3938 25.925 30.6625 25.5313 29.8657 25.2406C31.9375 24.6406 34.5438 25.0438 36.1469 26.3375C37.0094 27.0313 37.45 27.9031 37.3657 28.8031Z" fill="#F3F2F1"/>
<defs>
<filter id="filter0_d_2569_5222" x="6.05583e-05" y="-2.38419e-07" width="56" height="56" filterUnits="userSpaceOnUse" color-interpolation-filters="sRGB">
<feFlood flood-opacity="0" result="BackgroundImageFix"/>
<feColorMatrix in="SourceAlpha" type="matrix" values="0 0 0 0 0 0 0 0 0 0 0 0 0 0 0 0 0 0 127 0" result="hardAlpha"/>
<feOffset dy="3.5"/>
<feGaussianBlur stdDeviation="2.75"/>
<feColorMatrix type="matrix" values="0 0 0 0 0 0 0 0 0 0 0 0 0 0 0 0 0 0 0.02 0"/>
<feBlend mode="normal" in2="BackgroundImageFix" result="effect1_dropShadow_2569_5222"/>
<feBlend mode="normal" in="SourceGraphic" in2="effect1_dropShadow_2569_5222" result="shape"/>
</filter>
</defs>
</svg>
