<svg width="13" height="14" viewBox="0 0 13 14" fill="none" xmlns="http://www.w3.org/2000/svg">
<path fill-rule="evenodd" clip-rule="evenodd" d="M3.3001 0.600098C3.08792 0.600098 2.88444 0.684383 2.73441 0.834412C2.58438 0.984441 2.5001 1.18792 2.5001 1.4001V2.2001H1.7001C1.27575 2.2001 0.868785 2.36867 0.568727 2.66873C0.268669 2.96878 0.100098 3.37575 0.100098 3.8001V11.8001C0.100098 12.2244 0.268669 12.6314 0.568727 12.9315C0.868785 13.2315 1.27575 13.4001 1.7001 13.4001H11.3001C11.7244 13.4001 12.1314 13.2315 12.4315 12.9315C12.7315 12.6314 12.9001 12.2244 12.9001 11.8001V3.8001C12.9001 3.37575 12.7315 2.96878 12.4315 2.66873C12.1314 2.36867 11.7244 2.2001 11.3001 2.2001H10.5001V1.4001C10.5001 1.18792 10.4158 0.984441 10.2658 0.834412C10.1158 0.684383 9.91227 0.600098 9.7001 0.600098C9.48792 0.600098 9.28444 0.684383 9.13441 0.834412C8.98438 0.984441 8.9001 1.18792 8.9001 1.4001V2.2001H4.1001V1.4001C4.1001 1.18792 4.01581 0.984441 3.86578 0.834412C3.71575 0.684383 3.51227 0.600098 3.3001 0.600098ZM3.3001 4.6001C3.08792 4.6001 2.88444 4.68438 2.73441 4.83441C2.58438 4.98444 2.5001 5.18792 2.5001 5.4001C2.5001 5.61227 2.58438 5.81575 2.73441 5.96578C2.88444 6.11581 3.08792 6.2001 3.3001 6.2001H9.7001C9.91227 6.2001 10.1158 6.11581 10.2658 5.96578C10.4158 5.81575 10.5001 5.61227 10.5001 5.4001C10.5001 5.18792 10.4158 4.98444 10.2658 4.83441C10.1158 4.68438 9.91227 4.6001 9.7001 4.6001H3.3001Z" fill="#6B7280"/>
</svg>
