<svg width="15" height="12" viewBox="0 0 15 12" fill="none" xmlns="http://www.w3.org/2000/svg">
<path d="M1.52397 6.00013L1.87752 5.64658L3.71187 3.81223C3.71189 3.81222 3.71191 3.8122 3.71192 3.81218C3.76813 3.75593 3.79971 3.67966 3.79971 3.60013C3.79971 3.52063 3.76815 3.44439 3.71198 3.38814C3.71194 3.3881 3.71191 3.38807 3.71187 3.38803M1.52397 6.00013L3.71187 3.38803M1.52397 6.00013L1.87752 6.35369L3.71192 8.18809L3.71187 8.18814L3.71812 8.19418C3.74678 8.22185 3.76963 8.25496 3.78535 8.29156C3.80108 8.32816 3.80935 8.36752 3.8097 8.40736C3.81004 8.44719 3.80245 8.4867 3.78737 8.52356C3.77228 8.56043 3.75001 8.59393 3.72184 8.6221C3.69367 8.65026 3.66018 8.67254 3.62331 8.68762C3.58644 8.70271 3.54693 8.7103 3.5071 8.70995C3.46727 8.70961 3.4279 8.70133 3.3913 8.68561C3.3547 8.66989 3.3216 8.64703 3.29392 8.61838L3.29398 8.61833L3.28783 8.61218L0.887885 6.21223C0.831643 6.15598 0.800049 6.07968 0.800049 6.00013C0.800049 5.92061 0.831623 5.84434 0.887831 5.78809C0.887849 5.78807 0.887867 5.78805 0.887885 5.78803L3.28778 3.38814M1.52397 6.00013L3.28778 3.38814M3.71187 3.38803C3.65562 3.33186 3.57938 3.3003 3.49988 3.3003C3.42035 3.3003 3.34408 3.33188 3.28783 3.38809M3.71187 3.38803L3.28783 3.38809M3.28783 3.38809L3.28778 3.38814M3.28783 3.38809L3.28778 3.38814M11.7119 8.61213L11.7119 8.61218L14.1119 6.21223C14.1119 6.21222 14.1119 6.2122 14.1119 6.21218C14.1681 6.15593 14.1997 6.07966 14.1997 6.00013C14.1997 5.92061 14.1681 5.84434 14.1119 5.78809L11.7119 8.61213ZM11.7119 8.61213L11.7058 8.61838C11.6782 8.64703 11.6451 8.66989 11.6085 8.68561L11.8058 9.14501L11.6085 8.68561C11.5719 8.70133 11.5325 8.70961 11.4927 8.70995C11.4528 8.7103 11.4133 8.70271 11.3764 8.68762C11.3396 8.67254 11.3061 8.65026 11.2779 8.62209C11.2497 8.59393 11.2275 8.56043 11.2124 8.52357L10.7496 8.7129L11.2124 8.52356C11.1973 8.48669 11.1897 8.44719 11.1901 8.40736C11.1904 8.36753 11.1987 8.32816 11.2144 8.29155C11.2301 8.25496 11.253 8.22185 11.2816 8.19418L11.2817 8.19423L11.2878 8.18809L13.1222 6.35369L13.4758 6.00013L13.1222 5.64658L11.2879 3.81223C11.2879 3.81222 11.2879 3.8122 11.2878 3.81218C11.2316 3.75593 11.2 3.67966 11.2 3.60013C11.2 3.52063 11.2316 3.44439 11.2878 3.38814C11.344 3.3319 11.4203 3.3003 11.4999 3.3003C11.5794 3.3003 11.6557 3.33188 11.7119 3.38809C11.7119 3.38811 11.712 3.38812 11.712 3.38814L14.1119 5.78803L11.7119 8.61213ZM9.19461 0.91529L9.19482 0.915361C9.23222 0.927803 9.26679 0.94749 9.29657 0.973297C9.32635 0.999105 9.35076 1.03053 9.3684 1.06577C9.38603 1.10101 9.39655 1.13938 9.39935 1.17869C9.40215 1.218 9.39718 1.25748 9.38472 1.29486L6.18474 10.8948L6.18469 10.895C6.15953 10.9705 6.10541 11.033 6.03421 11.0686C5.96301 11.1042 5.88058 11.1101 5.80504 11.0849L5.64708 11.5593L5.80504 11.0849C5.72951 11.0598 5.66705 11.0057 5.63143 10.9345C5.59583 10.8633 5.58993 10.7809 5.61502 10.7054C5.61504 10.7054 5.61505 10.7053 5.61507 10.7053L8.81502 1.10545L8.81511 1.10519C8.82755 1.0678 8.84723 1.03322 8.87304 1.00344C8.89885 0.973657 8.93027 0.949252 8.96551 0.931617C9.00075 0.913982 9.03913 0.903463 9.07844 0.900661C9.11774 0.89786 9.15722 0.90283 9.19461 0.91529Z" fill="#6B7280" stroke="#6B7280"/>
</svg>
