<svg width="17" height="16" viewBox="0 0 17 16" fill="none" xmlns="http://www.w3.org/2000/svg">
<path d="M8.74147 3.63644C8.69617 3.59588 8.6359 3.57324 8.57322 3.57324C8.51053 3.57324 8.45026 3.59588 8.40496 3.63644L2.80354 8.64538C2.77975 8.66668 2.76083 8.69228 2.74791 8.72062C2.73499 8.74897 2.72835 8.77947 2.72839 8.81029L2.72748 13.5113C2.72748 13.7531 2.83006 13.9849 3.01265 14.1558C3.19524 14.3267 3.44289 14.4227 3.70111 14.4227H6.62504C6.75415 14.4227 6.87798 14.3747 6.96927 14.2893C7.06057 14.2038 7.11186 14.0879 7.11186 13.967V10.0936C7.11186 10.0332 7.1375 9.97525 7.18315 9.93252C7.2288 9.88979 7.29071 9.86579 7.35527 9.86579H9.78934C9.8539 9.86579 9.91581 9.88979 9.96146 9.93252C10.0071 9.97525 10.0327 10.0332 10.0327 10.0936V13.967C10.0327 14.0879 10.084 14.2038 10.1753 14.2893C10.2666 14.3747 10.3905 14.4227 10.5196 14.4227H13.4423C13.7005 14.4227 13.9482 14.3267 14.1307 14.1558C14.3133 13.9849 14.4159 13.7531 14.4159 13.5113V8.81029C14.416 8.77947 14.4093 8.74897 14.3964 8.72062C14.3835 8.69228 14.3645 8.66668 14.3408 8.64538L8.74147 3.63644Z" fill="#039BFA"/>
<path d="M15.72 7.70629L13.4442 5.6682V2.57545C13.4442 2.45459 13.3929 2.33869 13.3016 2.25323C13.2103 2.16777 13.0865 2.11976 12.9574 2.11976H11.4969C11.3678 2.11976 11.244 2.16777 11.1527 2.25323C11.0614 2.33869 11.0101 2.45459 11.0101 2.57545V3.48684L9.24784 1.90957C9.08293 1.75349 8.8377 1.66406 8.57269 1.66406C8.30859 1.66406 8.06397 1.75349 7.89906 1.90985L1.42746 7.70572C1.23821 7.87661 1.21447 8.15771 1.38669 8.34284C1.42993 8.38957 1.48288 8.42757 1.54231 8.45453C1.60175 8.4815 1.66642 8.49686 1.7324 8.49969C1.79837 8.50251 1.86428 8.49274 1.92609 8.47096C1.9879 8.44919 2.04434 8.41587 2.09196 8.37303L8.40534 2.72583C8.45064 2.68527 8.51091 2.66263 8.5736 2.66263C8.63629 2.66263 8.69656 2.68527 8.74186 2.72583L15.0558 8.37303C15.1489 8.45652 15.2734 8.50209 15.4023 8.49974C15.5311 8.49739 15.6537 8.44732 15.7432 8.3605C15.93 8.17936 15.9145 7.88031 15.72 7.70629Z" fill="#039BFA"/>
</svg>
