<svg width="16" height="16" viewBox="0 0 16 16" fill="none" xmlns="http://www.w3.org/2000/svg">
<path d="M6.10522 2.70375V1.79236C6.10522 1.54325 5.88453 1.33667 5.61841 1.33667C5.35228 1.33667 5.13159 1.54325 5.13159 1.79236V2.74021C5.29386 2.72198 5.44315 2.70375 5.61841 2.70375H6.10522Z" fill="#039BFA"/>
<path d="M11.2981 2.74021V1.79236C11.2981 1.54325 11.0774 1.33667 10.8113 1.33667C10.5452 1.33667 10.3245 1.54325 10.3245 1.79236V2.70375H10.8113C10.9865 2.70375 11.1358 2.72198 11.2981 2.74021Z" fill="#039BFA"/>
<path d="M11.298 2.74019V3.61513C11.298 3.86424 11.0773 4.07082 10.8112 4.07082C10.5451 4.07082 10.3244 3.86424 10.3244 3.61513V2.70374H6.1053V3.61513C6.1053 3.86424 5.88461 4.07082 5.61848 4.07082C5.35236 4.07082 5.13167 3.86424 5.13167 3.61513V2.74019C3.21686 2.90424 2.37305 4.05867 2.37305 5.7417V10.9062C2.37305 12.729 3.34668 13.9442 5.61848 13.9442H10.8112C13.083 13.9442 14.0566 12.729 14.0566 10.9062V5.7417C14.0566 4.05867 13.2128 2.90424 11.298 2.74019ZM8.21483 10.7543H5.61848C5.35236 10.7543 5.13167 10.5478 5.13167 10.2987C5.13167 10.0495 5.35236 9.84296 5.61848 9.84296H8.21483C8.48096 9.84296 8.70165 10.0495 8.70165 10.2987C8.70165 10.5478 8.48096 10.7543 8.21483 10.7543ZM10.8112 7.71638H5.61848C5.35236 7.71638 5.13167 7.5098 5.13167 7.26068C5.13167 7.01157 5.35236 6.80499 5.61848 6.80499H10.8112C11.0773 6.80499 11.298 7.01157 11.298 7.26068C11.298 7.5098 11.0773 7.71638 10.8112 7.71638Z" fill="#039BFA"/>
</svg>
