<svg width="13" height="14" viewBox="0 0 13 14" fill="none" xmlns="http://www.w3.org/2000/svg">
<path d="M6.712 9.61209L9.11195 7.21214L9.11809 7.206L9.11815 7.20605C9.1468 7.17838 9.16966 7.14527 9.18538 7.10868C9.2011 7.07207 9.20938 7.03271 9.20972 6.99287C9.21007 6.95304 9.20248 6.91354 9.18739 6.87666C9.17231 6.8398 9.15003 6.8063 9.12187 6.77813C9.0937 6.74997 9.0602 6.72769 9.02333 6.71261C8.98646 6.69752 8.94696 6.68993 8.90713 6.69028C8.86729 6.69062 8.82793 6.6989 8.79133 6.71462C8.75473 6.73034 8.72162 6.7532 8.69395 6.78185L8.68791 6.7881L8.68786 6.78805L7.65346 7.82245L6.7999 8.676V7.4689V1.4001C6.7999 1.32053 6.7683 1.24423 6.71203 1.18797C6.65577 1.1317 6.57947 1.1001 6.4999 1.1001C6.42034 1.1001 6.34403 1.1317 6.28777 1.18797C6.23151 1.24423 6.1999 1.32053 6.1999 1.4001V7.4689V8.67601L5.34635 7.82245L4.312 6.7881C4.31199 6.78809 4.31197 6.78807 4.31195 6.78805C4.2557 6.73184 4.17943 6.70027 4.0999 6.70027C4.0204 6.70027 3.94416 6.73182 3.88791 6.788C3.88787 6.78803 3.88784 6.78807 3.8878 6.7881M6.712 9.61209L3.5343 7.5657C3.38433 7.41567 3.30007 7.21223 3.30007 7.0001C3.30007 6.78797 3.38433 6.58452 3.5343 6.4345L3.8878 6.7881M6.712 9.61209C6.71199 9.61211 6.71197 9.61213 6.71195 9.61214C6.6557 9.66835 6.57943 9.69993 6.4999 9.69993C6.42038 9.69993 6.34411 9.66835 6.28786 9.61214C6.28784 9.61213 6.28782 9.61211 6.2878 9.61209L3.88791 7.2122M6.712 9.61209L3.88791 7.2122M3.8878 6.7881C3.83163 6.84435 3.80007 6.9206 3.80007 7.0001C3.80007 7.07965 3.83167 7.15594 3.88791 7.2122M3.8878 6.7881L3.88791 7.2122M1.3999 12.6001C1.3999 12.5205 1.43151 12.4442 1.48777 12.388C1.54403 12.3317 1.62034 12.3001 1.6999 12.3001H11.2999C11.3795 12.3001 11.4558 12.3317 11.512 12.388C11.5683 12.4442 11.5999 12.5205 11.5999 12.6001C11.5999 12.6797 11.5683 12.756 11.512 12.8122C11.4558 12.8685 11.3795 12.9001 11.2999 12.9001H1.6999C1.62034 12.9001 1.54403 12.8685 1.48777 12.8122C1.43151 12.756 1.3999 12.6797 1.3999 12.6001Z" fill="#6B7280" stroke="#6B7280"/>
</svg>
