<svg width="13" height="12" viewBox="0 0 13 12" fill="none" xmlns="http://www.w3.org/2000/svg">
<path fill-rule="evenodd" clip-rule="evenodd" d="M1.7001 0.399902C1.27575 0.399902 0.868785 0.568473 0.568727 0.868531C0.268669 1.16859 0.100098 1.57556 0.100098 1.9999V9.9999C0.100098 10.4242 0.268669 10.8312 0.568727 11.1313C0.868785 11.4313 1.27575 11.5999 1.7001 11.5999H11.3001C11.7244 11.5999 12.1314 11.4313 12.4315 11.1313C12.7315 10.8312 12.9001 10.4242 12.9001 9.9999V1.9999C12.9001 1.57556 12.7315 1.16859 12.4315 0.868531C12.1314 0.568473 11.7244 0.399902 11.3001 0.399902H1.7001ZM11.3001 9.9999H1.7001L4.9001 3.5999L7.3001 8.3999L8.9001 5.1999L11.3001 9.9999Z" fill="#6B7280"/>
</svg>
