<svg width="17" height="16" viewBox="0 0 17 16" fill="none" xmlns="http://www.w3.org/2000/svg">
<path fill-rule="evenodd" clip-rule="evenodd" d="M4.54006 3.2399C5.59032 2.18964 7.01477 1.59961 8.50006 1.59961C9.98535 1.59961 11.4098 2.18964 12.4601 3.2399C13.5103 4.29015 14.1003 5.71461 14.1003 7.19989C14.1003 8.68518 13.5103 10.1096 12.4601 11.1599L8.50006 15.1199L4.54006 11.1599C4.01999 10.6399 3.60745 10.0225 3.32599 9.34305C3.04453 8.66359 2.89966 7.93535 2.89966 7.19989C2.89966 6.46444 3.04453 5.7362 3.32599 5.05674C3.60745 4.37728 4.01999 3.75991 4.54006 3.2399ZM8.50006 8.79989C8.92441 8.79989 9.33137 8.63132 9.63143 8.33126C9.93149 8.03121 10.1001 7.62424 10.1001 7.19989C10.1001 6.77555 9.93149 6.36858 9.63143 6.06852C9.33137 5.76847 8.92441 5.5999 8.50006 5.5999C8.07572 5.5999 7.66875 5.76847 7.36869 6.06852C7.06863 6.36858 6.90006 6.77555 6.90006 7.19989C6.90006 7.62424 7.06863 8.03121 7.36869 8.33126C7.66875 8.63132 8.07572 8.79989 8.50006 8.79989Z" fill="#6B7280"/>
</svg>
