<svg width="17" height="16" viewBox="0 0 17 16" fill="none" xmlns="http://www.w3.org/2000/svg">
<path d="M5.75151 7.77618C5.75151 7.52706 5.9722 7.32048 6.23833 7.32048H9.79532V2.18024C9.78883 1.8886 9.54218 1.65771 9.23062 1.65771C5.40749 1.65771 2.73975 4.15492 2.73975 7.73365C2.73975 11.3124 5.40749 13.8096 9.23062 13.8096C9.53569 13.8096 9.78883 13.5787 9.78883 13.287V8.2258H6.23833C5.96571 8.23187 5.75151 8.02529 5.75151 7.77618Z" fill="#DC362E"/>
<path d="M13.9689 7.45412L12.1255 5.72248C11.9373 5.54628 11.6257 5.54628 11.4375 5.72248C11.2493 5.89869 11.2493 6.19033 11.4375 6.36653L12.4501 7.31438H9.78882V8.22577H12.4436L11.431 9.17361C11.2428 9.34981 11.2428 9.64146 11.431 9.81766C11.5284 9.9088 11.6517 9.95133 11.775 9.95133C11.8984 9.95133 12.0217 9.9088 12.119 9.81766L13.9624 8.08602C14.1572 7.91589 14.1572 7.63033 13.9689 7.45412Z" fill="#DC362E"/>
</svg>
