<svg width="57" height="56" viewBox="0 0 57 56" fill="none" xmlns="http://www.w3.org/2000/svg">
<g filter="url(#filter0_d_2642_316)">
<rect x="6.00006" y="2" width="45" height="45" rx="12" fill="#039BFA"/>
</g>
<path d="M21.4467 17.8182H35.5092C35.6735 17.8181 35.8376 17.8285 36.0005 17.8494C35.9453 17.4617 35.8121 17.0892 35.6091 16.7543C35.406 16.4195 35.1372 16.1292 34.8189 15.9011C34.5006 15.6729 34.1394 15.5116 33.7571 15.4268C33.3748 15.342 32.9792 15.3356 32.5943 15.4078L21.0293 17.3822H21.0161C20.2901 17.521 19.6446 17.9318 19.2112 18.5305C19.8641 18.0662 20.6456 17.8171 21.4467 17.8182Z" fill="white"/>
<path d="M35.5093 18.8749H21.4468C20.7012 18.8757 19.9863 19.1723 19.459 19.6995C18.9317 20.2268 18.6352 20.9417 18.6343 21.6874V30.1249C18.6352 30.8705 18.9317 31.5854 19.459 32.1127C19.9863 32.64 20.7012 32.9366 21.4468 32.9374H35.5093C36.255 32.9366 36.9699 32.64 37.4972 32.1127C38.0244 31.5854 38.321 30.8705 38.3218 30.1249V21.6874C38.321 20.9417 38.0244 20.2268 37.4972 19.6995C36.9699 19.1723 36.255 18.8757 35.5093 18.8749ZM33.4219 27.3124C33.1438 27.3124 32.8719 27.2299 32.6407 27.0754C32.4094 26.9209 32.2292 26.7012 32.1227 26.4443C32.0163 26.1873 31.9884 25.9046 32.0427 25.6318C32.097 25.359 32.2309 25.1084 32.4276 24.9118C32.6242 24.7151 32.8748 24.5812 33.1476 24.5269C33.4204 24.4726 33.7031 24.5005 33.9601 24.6069C34.217 24.7134 34.4367 24.8936 34.5912 25.1249C34.7457 25.3561 34.8282 25.628 34.8282 25.9061C34.8282 26.2791 34.68 26.6368 34.4163 26.9005C34.1526 27.1642 33.7949 27.3124 33.4219 27.3124Z" fill="white"/>
<path d="M18.6563 24.6514V20.2788C18.6563 19.3265 19.1837 17.73 21.014 17.3841C22.5674 17.0928 24.1055 17.0928 24.1055 17.0928C24.1055 17.0928 25.1163 17.7959 24.2813 17.7959C23.4463 17.7959 23.4683 18.8726 24.2813 18.8726C25.0943 18.8726 24.2813 19.9053 24.2813 19.9053L21.0074 23.6187L18.6563 24.6514Z" fill="white"/>
<defs>
<filter id="filter0_d_2642_316" x="0.500061" y="-2.38419e-07" width="56" height="56" filterUnits="userSpaceOnUse" color-interpolation-filters="sRGB">
<feFlood flood-opacity="0" result="BackgroundImageFix"/>
<feColorMatrix in="SourceAlpha" type="matrix" values="0 0 0 0 0 0 0 0 0 0 0 0 0 0 0 0 0 0 127 0" result="hardAlpha"/>
<feOffset dy="3.5"/>
<feGaussianBlur stdDeviation="2.75"/>
<feColorMatrix type="matrix" values="0 0 0 0 0 0 0 0 0 0 0 0 0 0 0 0 0 0 0.02 0"/>
<feBlend mode="normal" in2="BackgroundImageFix" result="effect1_dropShadow_2642_316"/>
<feBlend mode="normal" in="SourceGraphic" in2="effect1_dropShadow_2642_316" result="shape"/>
</filter>
</defs>
</svg>
