<svg width="225" height="42" viewBox="0 0 225 42" fill="none" xmlns="http://www.w3.org/2000/svg">
<rect x="18.6183" y="26.5878" width="8.49934" height="8.65976" fill="#039BFA"/>
<rect x="10.0001" y="17.928" width="8.65976" height="8.65976" fill="#039BFA"/>
<path d="M36.6375 17.9289C36.6375 13.1463 32.7604 9.26917 27.9777 9.26917H18.5247V17.9289H36.6375Z" fill="#039BFA"/>
<path d="M36.6385 17.9295H27.1199V26.5796H36.6385V17.9295Z" fill="#039BFA"/>
<path d="M75.8805 6.90124V7.84796H74.5951V11.7523H73.4135V7.84796H72.1281V6.90124H75.8805ZM80.675 6.90124V11.7523H79.4933V9.75522H77.6552V11.7523H76.4735V6.90124H77.6552V8.80159H79.4933V6.90124H80.675ZM82.7097 7.84796V8.82923H84.2922V9.7414H82.7097V10.8056H84.4995V11.7523H81.5281V6.90124H84.4995V7.84796H82.7097Z" fill="#039BFA"/>
<path d="M51.7462 20.363C51.7462 20.9981 51.6004 21.5811 51.3089 22.1121C51.0174 22.6327 50.5697 23.0544 49.9658 23.3772C49.3619 23.6999 48.6123 23.8613 47.7169 23.8613H46.0615V27.7969H43.3909V16.8335H47.7169C48.5915 16.8335 49.3307 16.9844 49.9346 17.2864C50.5384 17.5883 50.9913 18.0048 51.2933 18.5358C51.5952 19.0667 51.7462 19.6758 51.7462 20.363ZM47.5139 21.7373C48.024 21.7373 48.4041 21.6176 48.6539 21.3781C48.9038 21.1387 49.0288 20.8003 49.0288 20.363C49.0288 19.9257 48.9038 19.5873 48.6539 19.3479C48.4041 19.1084 48.024 18.9887 47.5139 18.9887H46.0615V21.7373H47.5139ZM55.4947 20.5348C55.8071 20.0558 56.1975 19.681 56.666 19.4103C57.1346 19.1292 57.6551 18.9887 58.2278 18.9887V21.8154H57.4938C56.8274 21.8154 56.3277 21.9612 55.9945 22.2527C55.6613 22.5338 55.4947 23.0336 55.4947 23.752V27.7969H52.8242V19.0824H55.4947V20.5348ZM67.4067 23.2991C67.4067 23.5489 67.391 23.8092 67.3598 24.0799H61.3159C61.3575 24.6213 61.5293 25.0378 61.8312 25.3293C62.1436 25.6104 62.5236 25.751 62.9713 25.751C63.6377 25.751 64.101 25.4699 64.3613 24.9077H67.2036C67.0579 25.4803 66.7924 25.9957 66.4071 26.4538C66.0323 26.9119 65.5586 27.2711 64.986 27.5314C64.4133 27.7917 63.773 27.9218 63.065 27.9218C62.2113 27.9218 61.4512 27.7396 60.7849 27.3752C60.1185 27.0108 59.598 26.4902 59.2231 25.8135C58.8483 25.1367 58.6609 24.3454 58.6609 23.4396C58.6609 22.5338 58.8431 21.7425 59.2075 21.0658C59.5823 20.389 60.1029 19.8684 60.7693 19.504C61.4356 19.1396 62.2009 18.9574 63.065 18.9574C63.9084 18.9574 64.658 19.1344 65.3139 19.4884C65.9699 19.8424 66.48 20.3474 66.8444 21.0033C67.2192 21.6592 67.4067 22.4245 67.4067 23.2991ZM64.6736 22.5963C64.6736 22.1382 64.5174 21.7738 64.2051 21.5031C63.8927 21.2324 63.5023 21.097 63.0338 21.097C62.5861 21.097 62.2061 21.2272 61.8937 21.4874C61.5918 21.7477 61.4044 22.1173 61.3315 22.5963H64.6736ZM71.1737 20.3161C71.434 19.9101 71.7932 19.5821 72.2513 19.3322C72.7095 19.0824 73.2457 18.9574 73.8599 18.9574C74.5783 18.9574 75.2291 19.1396 75.8121 19.504C76.3952 19.8684 76.8533 20.389 77.1864 21.0658C77.53 21.7425 77.7018 22.5286 77.7018 23.424C77.7018 24.3194 77.53 25.1107 77.1864 25.7978C76.8533 26.4746 76.3952 27.0004 75.8121 27.3752C75.2291 27.7396 74.5783 27.9218 73.8599 27.9218C73.2561 27.9218 72.7199 27.7969 72.2513 27.547C71.7932 27.2971 71.434 26.9744 71.1737 26.5787V31.9511H68.5032V19.0824H71.1737V20.3161ZM74.9844 23.424C74.9844 22.7577 74.797 22.2371 74.4222 21.8623C74.0578 21.477 73.6049 21.2844 73.0634 21.2844C72.5325 21.2844 72.0796 21.477 71.7047 21.8623C71.3403 22.2475 71.1581 22.7733 71.1581 23.4396C71.1581 24.106 71.3403 24.6317 71.7047 25.017C72.0796 25.4022 72.5325 25.5948 73.0634 25.5948C73.5944 25.5948 74.0473 25.4022 74.4222 25.017C74.797 24.6213 74.9844 24.0903 74.9844 23.424ZM83.6475 25.5324V27.7969H82.2888C81.3205 27.7969 80.5657 27.5626 80.0243 27.0941C79.4829 26.6152 79.2122 25.8395 79.2122 24.7671V21.3H78.1502V19.0824H79.2122V16.9584H81.8828V19.0824H83.6319V21.3H81.8828V24.7983C81.8828 25.0586 81.9452 25.246 82.0702 25.3606C82.1951 25.4751 82.4033 25.5324 82.6949 25.5324H83.6475ZM86.1658 18.1766C85.6973 18.1766 85.3121 18.0412 85.0101 17.7705C84.7186 17.4894 84.5729 17.1458 84.5729 16.7398C84.5729 16.3233 84.7186 15.9797 85.0101 15.709C85.3121 15.4279 85.6973 15.2873 86.1658 15.2873C86.6239 15.2873 86.9988 15.4279 87.2903 15.709C87.5922 15.9797 87.7432 16.3233 87.7432 16.7398C87.7432 17.1458 87.5922 17.4894 87.2903 17.7705C86.9988 18.0412 86.6239 18.1766 86.1658 18.1766ZM87.4933 19.0824V27.7969H84.8227V19.0824H87.4933ZM100.236 18.9887C101.319 18.9887 102.178 19.3166 102.813 19.9726C103.458 20.6285 103.781 21.5395 103.781 22.7056V27.7969H101.126V23.0648C101.126 22.5026 100.975 22.0705 100.673 21.7686C100.382 21.4562 99.9756 21.3 99.455 21.3C98.9344 21.3 98.5232 21.4562 98.2212 21.7686C97.9297 22.0705 97.784 22.5026 97.784 23.0648V27.7969H95.129V23.0648C95.129 22.5026 94.978 22.0705 94.6761 21.7686C94.3846 21.4562 93.9785 21.3 93.4579 21.3C92.9374 21.3 92.5261 21.4562 92.2242 21.7686C91.9326 22.0705 91.7869 22.5026 91.7869 23.0648V27.7969H89.1163V19.0824H91.7869V20.1756C92.0576 19.8112 92.4116 19.5249 92.8489 19.3166C93.2862 19.098 93.7807 18.9887 94.3325 18.9887C94.9884 18.9887 95.5715 19.1292 96.0817 19.4103C96.6022 19.6914 97.0083 20.0923 97.2998 20.6129C97.6018 20.1339 98.013 19.7435 98.5336 19.4416C99.0542 19.1396 99.6216 18.9887 100.236 18.9887ZM113.551 23.2991C113.551 23.5489 113.536 23.8092 113.504 24.0799H107.46C107.502 24.6213 107.674 25.0378 107.976 25.3293C108.288 25.6104 108.668 25.751 109.116 25.751C109.782 25.751 110.246 25.4699 110.506 24.9077H113.348C113.202 25.4803 112.937 25.9957 112.552 26.4538C112.177 26.9119 111.703 27.2711 111.13 27.5314C110.558 27.7917 109.918 27.9218 109.21 27.9218C108.356 27.9218 107.596 27.7396 106.929 27.3752C106.263 27.0108 105.742 26.4902 105.368 25.8135C104.993 25.1367 104.805 24.3454 104.805 23.4396C104.805 22.5338 104.988 21.7425 105.352 21.0658C105.727 20.389 106.247 19.8684 106.914 19.504C107.58 19.1396 108.345 18.9574 109.21 18.9574C110.053 18.9574 110.803 19.1344 111.458 19.4884C112.114 19.8424 112.625 20.3474 112.989 21.0033C113.364 21.6592 113.551 22.4245 113.551 23.2991ZM110.818 22.5963C110.818 22.1382 110.662 21.7738 110.35 21.5031C110.037 21.2324 109.647 21.097 109.178 21.097C108.731 21.097 108.351 21.2272 108.038 21.4874C107.736 21.7477 107.549 22.1173 107.476 22.5963H110.818Z" fill="#039BFA"/>
</svg>
