<svg width="17" height="16" viewBox="0 0 17 16" fill="none" xmlns="http://www.w3.org/2000/svg">
<path d="M10.7575 2.28167C10.1654 1.68328 9.33846 1.35376 8.42568 1.35376C7.50803 1.35376 6.67832 1.68129 6.08897 2.27597C5.49323 2.8772 5.20296 3.69432 5.27112 4.57666C5.40621 6.31741 6.82132 7.73349 8.42568 7.73349C10.03 7.73349 11.4427 6.3177 11.5799 4.57723C11.649 3.70287 11.3569 2.88746 10.7575 2.28167Z" fill="#039BFA"/>
<path d="M13.7807 14.1126H3.07076C2.93058 14.1143 2.79175 14.0868 2.66438 14.0319C2.53701 13.9771 2.4243 13.8964 2.33445 13.7956C2.13668 13.5743 2.05697 13.2722 2.11599 12.9666C2.37279 11.6331 3.17421 10.5129 4.43384 9.72656C5.55291 9.02849 6.97045 8.64429 8.42573 8.64429C9.881 8.64429 11.2985 9.02878 12.4176 9.72656C13.6772 10.5126 14.4787 11.6328 14.7355 12.9663C14.7945 13.2719 14.7148 13.574 14.517 13.7953C14.4272 13.8961 14.3145 13.9769 14.1871 14.0318C14.0597 14.0867 13.9209 14.1143 13.7807 14.1126V14.1126Z" fill="#039BFA"/>
</svg>
