<svg width="24" height="27" viewBox="0 0 24 27" fill="none" xmlns="http://www.w3.org/2000/svg">
<path d="M10.4205 3.84374C11.0391 2.73002 12.6408 2.73002 13.2593 3.84374C13.7429 4.71444 14.7628 5.13691 15.7205 4.86318C16.9454 4.51305 18.0779 5.6456 17.7278 6.8705C17.4541 7.82813 17.8765 8.84807 18.7472 9.33166C19.8609 9.95022 19.8609 11.5519 18.7472 12.1704C17.8765 12.654 17.4541 13.674 17.7278 14.6316C18.0779 15.8565 16.9454 16.989 15.7205 16.6389C14.7628 16.3652 13.7429 16.7877 13.2593 17.6584C12.6408 18.7721 11.0391 18.7721 10.4205 17.6584C9.93694 16.7877 8.917 16.3652 7.95937 16.6389C6.73447 16.989 5.60192 15.8565 5.95205 14.6316C6.22578 13.674 5.80331 12.654 4.93261 12.1704C3.81889 11.5519 3.81889 9.95022 4.93261 9.33166C5.80331 8.84807 6.22578 7.82813 5.95205 6.8705C5.60192 5.6456 6.73447 4.51305 7.95937 4.86318C8.917 5.13691 9.93694 4.71444 10.4205 3.84374Z" fill="#FFAC26" stroke="#E07514" stroke-width="0.518288"/>
<path d="M2.18466 20.285L4.16626 17.3957L9.02429 20.7275L7.04269 23.6168C6.49935 24.4091 5.26384 24.0999 5.15762 23.1451L5.0006 21.7336L4.9674 21.4352L4.677 21.5117L3.30369 21.8737C2.37475 22.1185 1.64131 21.0773 2.18466 20.285Z" fill="#FFAC26" stroke="#E07514" stroke-width="0.518288"/>
<path d="M21.1386 20.285L19.157 17.3957L14.2989 20.7275L16.2805 23.6168C16.8239 24.4091 18.0594 24.0999 18.1656 23.1451L18.3226 21.7336L18.3558 21.4352L18.6462 21.5117L20.0196 21.8737C20.9485 22.1185 21.6819 21.0773 21.1386 20.285Z" fill="#FFAC26" stroke="#E07514" stroke-width="0.518288"/>
</svg>
