<svg width="23" height="23" viewBox="0 0 23 23" fill="none" xmlns="http://www.w3.org/2000/svg">
<path d="M11.4326 0.454651C5.34595 0.454651 0.432617 5.36798 0.432617 11.4547C0.432617 17.5413 5.34595 22.4547 11.4326 22.4547C17.5193 22.4547 22.4326 17.5413 22.4326 11.4547C22.4326 5.36798 17.5193 0.454651 11.4326 0.454651ZM17.666 6.76132L10.9926 17.5413C10.7726 17.908 10.3326 18.2013 9.89262 18.2013C9.52595 18.2013 9.15928 17.9813 8.86595 17.688L4.75928 12.5547C4.46595 12.1147 4.46595 11.528 4.83262 11.1613C5.27262 10.7213 5.93262 10.7213 6.29928 11.088L9.81928 14.2413L16.0526 5.66132C16.346 5.22132 17.006 5.14798 17.446 5.44132C17.886 5.66132 17.9593 6.32132 17.666 6.76132Z" fill="white"/>
</svg>
