<svg width="15" height="16" viewBox="0 0 15 16" fill="none" xmlns="http://www.w3.org/2000/svg">
<path d="M13.7191 14.4895L9.50697 10.2774M10.911 6.76722C10.911 7.41256 10.7839 8.05158 10.537 8.6478C10.29 9.24401 9.92801 9.78575 9.47169 10.2421C9.01536 10.6984 8.47363 11.0604 7.87741 11.3073C7.28119 11.5543 6.64217 11.6814 5.99683 11.6814C5.35149 11.6814 4.71247 11.5543 4.11625 11.3073C3.52004 11.0604 2.9783 10.6984 2.52197 10.2421C2.06565 9.78575 1.70367 9.24401 1.45671 8.6478C1.20975 8.05158 1.08264 7.41256 1.08264 6.76722C1.08264 5.46389 1.60039 4.21395 2.52197 3.29236C3.44356 2.37077 4.69351 1.85303 5.99683 1.85303C7.30016 1.85303 8.5501 2.37077 9.47169 3.29236C10.3933 4.21395 10.911 5.46389 10.911 6.76722Z" stroke="#6B7280" stroke-width="1.87207" stroke-linecap="round" stroke-linejoin="round"/>
</svg>
