<svg width="13" height="14" viewBox="0 0 13 14" fill="none" xmlns="http://www.w3.org/2000/svg">
<path d="M7.2153 1.04262C7.14879 0.909915 7.04667 0.798332 6.92036 0.720353C6.79405 0.642374 6.64854 0.601074 6.5001 0.601074C6.35166 0.601074 6.20615 0.642374 6.07984 0.720353C5.95354 0.798332 5.85141 0.909915 5.7849 1.04262L0.184903 12.2426C0.115418 12.3815 0.087851 12.5376 0.105564 12.6919C0.123277 12.8461 0.185505 12.9919 0.284656 13.1114C0.383808 13.2309 0.515597 13.319 0.663946 13.3649C0.812296 13.4108 0.970793 13.4125 1.1201 13.3698L5.1201 12.2266C5.28728 12.1788 5.43433 12.0778 5.53899 11.939C5.64364 11.8001 5.7002 11.6309 5.7001 11.457V7.80022C5.7001 7.58805 5.78439 7.38456 5.93442 7.23454C6.08445 7.08451 6.28793 7.00022 6.5001 7.00022C6.71228 7.00022 6.91576 7.08451 7.06579 7.23454C7.21582 7.38456 7.3001 7.58805 7.3001 7.80022V11.457C7.30001 11.6309 7.35657 11.8001 7.46122 11.939C7.56587 12.0778 7.71292 12.1788 7.8801 12.2266L11.8801 13.369C12.0294 13.4118 12.1878 13.4101 12.3362 13.3644C12.4846 13.3186 12.6164 13.2306 12.7156 13.1112C12.8149 12.9918 12.8772 12.8461 12.895 12.6919C12.9129 12.5376 12.8854 12.3815 12.8161 12.2426L7.2161 1.04262H7.2153Z" fill="#6B7280"/>
</svg>
