<svg width="13" height="14" viewBox="0 0 13 14" fill="none" xmlns="http://www.w3.org/2000/svg">
<path fill-rule="evenodd" clip-rule="evenodd" d="M7.6919 1.5361C7.3879 0.288098 5.6119 0.288098 5.3079 1.5361C5.26251 1.72363 5.17349 1.8978 5.04808 2.04443C4.92266 2.19106 4.7644 2.306 4.58617 2.37991C4.40794 2.45382 4.21478 2.48461 4.02241 2.46977C3.83003 2.45493 3.64388 2.39487 3.4791 2.2945C2.3815 1.6257 1.1255 2.8817 1.7943 3.9793C2.2263 4.6881 1.8431 5.6129 1.0367 5.8089C-0.212102 6.1121 -0.212102 7.8889 1.0367 8.1913C1.22428 8.23674 1.39848 8.32585 1.54511 8.45135C1.69174 8.57686 1.80665 8.73523 1.88049 8.91355C1.95433 9.09188 1.98501 9.28512 1.97003 9.47755C1.95506 9.66998 1.89484 9.85615 1.7943 10.0209C1.1255 11.1185 2.3815 12.3745 3.4791 11.7057C3.64385 11.6052 3.83002 11.5449 4.02245 11.53C4.21487 11.515 4.40812 11.5457 4.58644 11.6195C4.76477 11.6933 4.92313 11.8083 5.04864 11.9549C5.17415 12.1015 5.26325 12.2757 5.3087 12.4633C5.6119 13.7121 7.3887 13.7121 7.6911 12.4633C7.7367 12.2758 7.82589 12.1017 7.95142 11.9552C8.07696 11.8087 8.2353 11.6938 8.41357 11.62C8.59184 11.5462 8.78501 11.5155 8.97739 11.5304C9.16976 11.5453 9.35591 11.6053 9.5207 11.7057C10.6183 12.3745 11.8743 11.1185 11.2055 10.0209C11.1051 9.85611 11.0451 9.66996 11.0302 9.47758C11.0153 9.28521 11.046 9.09204 11.1198 8.91377C11.1936 8.7355 11.3085 8.57716 11.455 8.45162C11.6015 8.32609 11.7756 8.2369 11.9631 8.1913C13.2119 7.8881 13.2119 6.1113 11.9631 5.8089C11.7755 5.76345 11.6013 5.67435 11.4547 5.54884C11.3081 5.42333 11.1931 5.26497 11.1193 5.08664C11.0455 4.90832 11.0148 4.71507 11.0298 4.52265C11.0447 4.33022 11.105 4.14405 11.2055 3.9793C11.8743 2.8817 10.6183 1.6257 9.5207 2.2945C9.35595 2.39504 9.16978 2.45526 8.97735 2.47023C8.78492 2.48521 8.59168 2.45453 8.41335 2.38069C8.23503 2.30685 8.07666 2.19193 7.95116 2.04531C7.82565 1.89868 7.73654 1.72448 7.6911 1.5369L7.6919 1.5361ZM6.4999 9.4001C7.13642 9.4001 7.74687 9.14724 8.19695 8.69715C8.64704 8.24707 8.8999 7.63662 8.8999 7.0001C8.8999 6.36358 8.64704 5.75313 8.19695 5.30304C7.74687 4.85295 7.13642 4.6001 6.4999 4.6001C5.86338 4.6001 5.25293 4.85295 4.80284 5.30304C4.35275 5.75313 4.0999 6.36358 4.0999 7.0001C4.0999 7.63662 4.35275 8.24707 4.80284 8.69715C5.25293 9.14724 5.86338 9.4001 6.4999 9.4001Z" fill="#6B7280"/>
</svg>
