<svg width="13" height="14" viewBox="0 0 13 14" fill="none" xmlns="http://www.w3.org/2000/svg">
<path fill-rule="evenodd" clip-rule="evenodd" d="M6.5001 13.4001C8.19748 13.4001 9.82535 12.7258 11.0256 11.5256C12.2258 10.3253 12.9001 8.69748 12.9001 7.0001C12.9001 5.30271 12.2258 3.67485 11.0256 2.47461C9.82535 1.27438 8.19748 0.600098 6.5001 0.600098C4.80271 0.600098 3.17485 1.27438 1.97461 2.47461C0.774382 3.67485 0.100098 5.30271 0.100098 7.0001C0.100098 8.69748 0.774382 10.3253 1.97461 11.5256C3.17485 12.7258 4.80271 13.4001 6.5001 13.4001ZM4.1001 6.2001C4.31227 6.2001 4.51575 6.11581 4.66578 5.96578C4.81581 5.81575 4.9001 5.61227 4.9001 5.4001C4.9001 5.18792 4.81581 4.98444 4.66578 4.83441C4.51575 4.68438 4.31227 4.6001 4.1001 4.6001C3.88792 4.6001 3.68444 4.68438 3.53441 4.83441C3.38438 4.98444 3.3001 5.18792 3.3001 5.4001C3.3001 5.61227 3.38438 5.81575 3.53441 5.96578C3.68444 6.11581 3.88792 6.2001 4.1001 6.2001ZM9.7001 5.4001C9.7001 5.61227 9.61581 5.81575 9.46578 5.96578C9.31575 6.11581 9.11227 6.2001 8.9001 6.2001C8.68792 6.2001 8.48444 6.11581 8.33441 5.96578C8.18438 5.81575 8.1001 5.61227 8.1001 5.4001C8.1001 5.18792 8.18438 4.98444 8.33441 4.83441C8.48444 4.68438 8.68792 4.6001 8.9001 4.6001C9.11227 4.6001 9.31575 4.68438 9.46578 4.83441C9.61581 4.98444 9.7001 5.18792 9.7001 5.4001ZM9.3289 9.8281C9.40317 9.75377 9.46208 9.66554 9.50226 9.56844C9.54244 9.47135 9.5631 9.36729 9.56306 9.26221C9.56302 9.15714 9.54229 9.05309 9.50204 8.95603C9.4618 8.85896 9.40283 8.77077 9.3285 8.6965C9.25417 8.62222 9.16594 8.56331 9.06884 8.52314C8.97175 8.48296 8.86769 8.4623 8.76261 8.46234C8.65754 8.46237 8.55349 8.48311 8.45643 8.52335C8.35936 8.5636 8.27117 8.62257 8.1969 8.6969C7.74683 9.14683 7.13649 9.39958 6.5001 9.39958C5.8637 9.39958 5.25336 9.14683 4.8033 8.6969C4.65329 8.54678 4.4498 8.46241 4.23758 8.46234C4.02536 8.46226 3.82181 8.54649 3.6717 8.6965C3.52158 8.8465 3.43721 9.05 3.43714 9.26221C3.43706 9.47443 3.52129 9.67798 3.6713 9.8281C4.04275 10.1996 4.48375 10.4944 4.96912 10.6955C5.45449 10.8965 5.97472 11 6.5001 11C7.02547 11 7.5457 10.8965 8.03108 10.6955C8.51645 10.4944 8.95745 10.1996 9.3289 9.8281Z" fill="#6B7280"/>
</svg>
