<svg width="32" height="37" viewBox="0 0 32 37" fill="none" xmlns="http://www.w3.org/2000/svg">
<path d="M0.5 17.5V17.5C0.499768 15.8946 1.09367 14.3458 2.16728 13.1522C3.24089 11.9586 4.71824 11.2045 6.31472 11.0353L6.90514 10.9727L6.74299 10.4015C6.46922 9.43715 6.39145 8.42773 6.51426 7.43283C6.63707 6.43793 6.95797 5.47772 7.45803 4.6089C7.95808 3.74008 8.62715 2.98026 9.42573 2.3743C10.2243 1.76834 11.1362 1.32852 12.1076 1.08083C13.0789 0.83313 14.0901 0.782571 15.0813 0.932134C16.0725 1.0817 17.0238 1.42835 17.8788 1.95163C18.7338 2.4749 19.4754 3.16419 20.0596 3.9788C20.6438 4.7934 21.0589 5.71681 21.2804 6.6945L21.3817 7.14191L21.8362 7.07938C22.9902 6.92059 24.1646 7.00073 25.2864 7.3148C26.4082 7.62888 27.4535 8.1702 28.3573 8.90516C29.2612 9.64011 30.0043 10.553 30.5406 11.5872C31.0768 12.6214 31.3948 13.7547 31.4747 14.9169C31.5546 16.0791 31.3948 17.2453 31.0052 18.3432C30.6155 19.441 30.0043 20.4471 29.2096 21.2988C28.4149 22.1506 27.4535 22.8299 26.3853 23.2946C25.317 23.7592 24.1647 23.9994 22.9997 24H18.5V14.5C18.5 13.837 18.2366 13.2011 17.7678 12.7323C17.2989 12.2634 16.663 12 16 12C15.337 12 14.7011 12.2634 14.2322 12.7323C13.7634 13.2011 13.5 13.837 13.5 14.5V24H7C5.27609 24 3.62279 23.3152 2.40381 22.0962C1.18482 20.8773 0.5 19.224 0.5 17.5ZM13.6464 30.0256L14.5 30.8792V29.672V25H17.5V29.672V30.8792L18.3536 30.0256L20.9363 27.4429C21.2189 27.1714 21.5965 27.0213 21.9885 27.0247C22.3818 27.0281 22.758 27.1859 23.0361 27.464C23.3142 27.7421 23.472 28.1183 23.4754 28.5116C23.4788 28.9035 23.3286 29.2812 23.0572 29.5638L17.0605 35.5604C17.0605 35.5605 17.0605 35.5605 17.0604 35.5605C16.7792 35.8417 16.3977 35.9996 16 35.9996C15.6023 35.9996 15.2208 35.8417 14.9396 35.5605C14.9395 35.5605 14.9395 35.5605 14.9395 35.5604L8.94282 29.5638C8.67137 29.2812 8.52123 28.9035 8.52463 28.5116C8.52805 28.1183 8.6858 27.7421 8.96392 27.464C9.24203 27.1859 9.61825 27.0281 10.0115 27.0247C10.4035 27.0213 10.7811 27.1714 11.0637 27.4429L13.6464 30.0256Z" fill="#9CA3AF" stroke="#9CA3AF"/>
</svg>
