<svg width="17" height="16" viewBox="0 0 17 16" fill="none" xmlns="http://www.w3.org/2000/svg">
<path d="M6.87772 6.37772L7.23127 6.73127L6.87772 6.37772C6.67143 6.58401 6.39164 6.6999 6.0999 6.6999H4.4999C4.20816 6.6999 3.92838 6.58401 3.72208 6.37772C3.51579 6.17143 3.3999 5.89164 3.3999 5.5999V3.9999C3.3999 3.70816 3.51579 3.42837 3.72208 3.22208C3.92837 3.01579 4.20816 2.8999 4.4999 2.8999H6.0999C6.39164 2.8999 6.67143 3.01579 6.87772 3.22208C7.08401 3.42838 7.1999 3.70816 7.1999 3.9999V5.5999C7.1999 5.89164 7.08401 6.17143 6.87772 6.37772ZM3.72208 9.62209C3.92838 9.4158 4.20816 9.2999 4.4999 9.2999H6.0999C6.39164 9.2999 6.67143 9.4158 6.87772 9.62209C7.08401 9.82838 7.1999 10.1082 7.1999 10.3999V11.9999C7.1999 12.2916 7.08401 12.5714 6.87772 12.7777C6.67143 12.984 6.39164 13.0999 6.0999 13.0999H4.4999C4.20816 13.0999 3.92837 12.984 3.72208 12.7777C3.51579 12.5714 3.3999 12.2916 3.3999 11.9999V10.3999C3.3999 10.1082 3.51579 9.82838 3.72208 9.62209ZM9.7999 3.9999C9.7999 3.70816 9.9158 3.42838 10.1221 3.22208C10.3284 3.01579 10.6082 2.8999 10.8999 2.8999H12.4999C12.7916 2.8999 13.0714 3.01579 13.2777 3.22208C13.484 3.42837 13.5999 3.70816 13.5999 3.9999V5.5999C13.5999 5.89164 13.484 6.17143 13.2777 6.37772C13.0714 6.58401 12.7916 6.6999 12.4999 6.6999H10.8999C10.6082 6.6999 10.3284 6.58401 10.1221 6.37772C9.9158 6.17143 9.7999 5.89164 9.7999 5.5999V3.9999ZM9.7999 10.3999C9.7999 10.1082 9.9158 9.82838 10.1221 9.62209C10.3284 9.4158 10.6082 9.2999 10.8999 9.2999H12.4999C12.7916 9.2999 13.0714 9.4158 13.2777 9.62209C13.484 9.82838 13.5999 10.1082 13.5999 10.3999V11.9999C13.5999 12.2916 13.484 12.5714 13.2777 12.7777C13.0714 12.984 12.7916 13.0999 12.4999 13.0999H10.8999C10.6082 13.0999 10.3284 12.984 10.1221 12.7777C9.9158 12.5714 9.7999 12.2916 9.7999 11.9999V10.3999Z" fill="#6B7280" stroke="#6B7280"/>
</svg>
