<svg width="178" height="46" viewBox="0 0 178 46" fill="none" xmlns="http://www.w3.org/2000/svg">
<rect x="13.3594" y="31.6978" width="13.175" height="13.4237" fill="white"/>
<rect y="18.2739" width="13.4237" height="13.4237" fill="white"/>
<path d="M41.2914 18.2753C41.2914 10.8616 35.2814 4.85156 27.8677 4.85156H13.2144V18.2753H41.2914Z" fill="white"/>
<path d="M41.293 18.2762H26.538V31.6849H41.293V18.2762Z" fill="white"/>
<path d="M101.696 1.43041V2.89795H99.7031V8.9502H97.8714V2.89795H95.879V1.43041H101.696ZM109.128 1.43041V8.9502H107.296V5.85445H104.447V8.9502H102.615V1.43041H104.447V4.3762H107.296V1.43041H109.128ZM112.282 2.89795V4.41905H114.735V5.83302H112.282V7.48266H115.056V8.9502H110.45V1.43041H115.056V2.89795H112.282Z" fill="white"/>
<path d="M64.5837 22.1958C64.5837 23.1803 64.3577 24.0841 63.9058 24.9072C63.4539 25.7142 62.7599 26.3678 61.8239 26.8681C60.8878 27.3684 59.7258 27.6186 58.3378 27.6186H55.7716V33.7192H51.6319V16.7246H58.3378C59.6935 16.7246 60.8394 16.9586 61.7755 17.4266C62.7115 17.8947 63.4136 18.5402 63.8816 19.3633C64.3497 20.1864 64.5837 21.1306 64.5837 22.1958ZM58.0231 24.3262C58.8139 24.3262 59.403 24.1406 59.7903 23.7694C60.1777 23.3982 60.3713 22.8736 60.3713 22.1958C60.3713 21.5179 60.1777 20.9934 59.7903 20.6222C59.403 20.251 58.8139 20.0654 58.0231 20.0654H55.7716V24.3262H58.0231ZM70.3944 22.4621C70.8786 21.7197 71.4838 21.1387 72.2101 20.719C72.9363 20.2833 73.7433 20.0654 74.631 20.0654V24.4472H73.4931C72.4602 24.4472 71.6855 24.6732 71.1691 25.1251C70.6526 25.5608 70.3944 26.3355 70.3944 27.4491V33.7192H66.2547V20.2107H70.3944V22.4621ZM88.8594 26.7471C88.8594 27.1344 88.8352 27.5379 88.7868 27.9575H79.4179C79.4825 28.7968 79.7488 29.4423 80.2168 29.8942C80.701 30.33 81.2901 30.5479 81.984 30.5479C83.017 30.5479 83.7352 30.1121 84.1386 29.2406H88.5447C88.3187 30.1282 87.9072 30.9271 87.31 31.6373C86.729 32.3474 85.9947 32.9042 85.107 33.3077C84.2193 33.7112 83.2268 33.9129 82.1293 33.9129C80.8059 33.9129 79.6277 33.6305 78.5948 33.0656C77.5619 32.5007 76.7549 31.6938 76.1739 30.6447C75.5929 29.5956 75.3024 28.3691 75.3024 26.9649C75.3024 25.5608 75.5848 24.3342 76.1497 23.2852C76.7307 22.2361 77.5377 21.4292 78.5706 20.8643C79.6035 20.2994 80.7897 20.017 82.1293 20.017C83.4366 20.017 84.5986 20.2913 85.6154 20.8401C86.6322 21.3888 87.423 22.1716 87.9879 23.1884C88.5689 24.2051 88.8594 25.3914 88.8594 26.7471ZM84.6228 25.6577C84.6228 24.9475 84.3807 24.3827 83.8966 23.963C83.4124 23.5434 82.8072 23.3336 82.0809 23.3336C81.3869 23.3336 80.7978 23.5353 80.3136 23.9388C79.8456 24.3423 79.5551 24.9153 79.4421 25.6577H84.6228ZM94.6988 22.1232C95.1023 21.4937 95.6591 20.9853 96.3693 20.598C97.0794 20.2107 97.9106 20.017 98.8628 20.017C99.9764 20.017 100.985 20.2994 101.889 20.8643C102.793 21.4292 103.503 22.2361 104.019 23.2852C104.552 24.3342 104.818 25.5528 104.818 26.9407C104.818 28.3287 104.552 29.5553 104.019 30.6205C103.503 31.6695 102.793 32.4846 101.889 33.0656C100.985 33.6305 99.9764 33.9129 98.8628 33.9129C97.9267 33.9129 97.0955 33.7192 96.3693 33.3319C95.6591 32.9446 95.1023 32.4442 94.6988 31.8309V40.1588H90.5591V20.2107H94.6988V22.1232ZM100.606 26.9407C100.606 25.9078 100.315 25.1009 99.7343 24.5198C99.1694 23.9227 98.4674 23.6241 97.6281 23.6241C96.805 23.6241 96.103 23.9227 95.5219 24.5198C94.9571 25.117 94.6746 25.932 94.6746 26.9649C94.6746 27.9979 94.9571 28.8129 95.5219 29.41C96.103 30.0072 96.805 30.3058 97.6281 30.3058C98.4512 30.3058 99.1533 30.0072 99.7343 29.41C100.315 28.7968 100.606 27.9737 100.606 26.9407ZM114.035 30.2089V33.7192H111.929C110.428 33.7192 109.258 33.3561 108.418 32.6298C107.579 31.8874 107.159 30.6851 107.159 29.0227V23.6483H105.513V20.2107H107.159V16.9182H111.299V20.2107H114.011V23.6483H111.299V29.0711C111.299 29.4746 111.396 29.7651 111.59 29.9426C111.783 30.1202 112.106 30.2089 112.558 30.2089H114.035ZM117.938 18.8065C117.212 18.8065 116.615 18.5967 116.147 18.1771C115.695 17.7413 115.469 17.2087 115.469 16.5793C115.469 15.9337 115.695 15.4011 116.147 14.9815C116.615 14.5458 117.212 14.3279 117.938 14.3279C118.649 14.3279 119.23 14.5458 119.682 14.9815C120.15 15.4011 120.384 15.9337 120.384 16.5793C120.384 17.2087 120.15 17.7413 119.682 18.1771C119.23 18.5967 118.649 18.8065 117.938 18.8065ZM119.996 20.2107V33.7192H115.856V20.2107H119.996ZM139.749 20.0654C141.427 20.0654 142.759 20.5738 143.743 21.5906C144.744 22.6073 145.244 24.0195 145.244 25.8271V33.7192H141.129V26.3839C141.129 25.5124 140.895 24.8426 140.427 24.3746C139.975 23.8904 139.345 23.6483 138.538 23.6483C137.731 23.6483 137.094 23.8904 136.626 24.3746C136.174 24.8426 135.948 25.5124 135.948 26.3839V33.7192H131.833V26.3839C131.833 25.5124 131.598 24.8426 131.13 24.3746C130.679 23.8904 130.049 23.6483 129.242 23.6483C128.435 23.6483 127.798 23.8904 127.33 24.3746C126.878 24.8426 126.652 25.5124 126.652 26.3839V33.7192H122.512V20.2107H126.652V21.9053C127.071 21.3404 127.62 20.8966 128.298 20.5738C128.976 20.2349 129.742 20.0654 130.598 20.0654C131.615 20.0654 132.518 20.2833 133.309 20.719C134.116 21.1548 134.746 21.7762 135.198 22.5831C135.666 21.8407 136.303 21.2355 137.11 20.7675C137.917 20.2994 138.797 20.0654 139.749 20.0654ZM160.389 26.7471C160.389 27.1344 160.365 27.5379 160.317 27.9575H150.948C151.012 28.7968 151.279 29.4423 151.747 29.8942C152.231 30.33 152.82 30.5479 153.514 30.5479C154.547 30.5479 155.265 30.1121 155.668 29.2406H160.074C159.849 30.1282 159.437 30.9271 158.84 31.6373C158.259 32.3474 157.524 32.9042 156.637 33.3077C155.749 33.7112 154.757 33.9129 153.659 33.9129C152.336 33.9129 151.158 33.6305 150.125 33.0656C149.092 32.5007 148.285 31.6938 147.704 30.6447C147.123 29.5956 146.832 28.3691 146.832 26.9649C146.832 25.5608 147.115 24.3342 147.68 23.2852C148.261 22.2361 149.067 21.4292 150.1 20.8643C151.133 20.2994 152.32 20.017 153.659 20.017C154.966 20.017 156.128 20.2913 157.145 20.8401C158.162 21.3888 158.953 22.1716 159.518 23.1884C160.099 24.2051 160.389 25.3914 160.389 26.7471ZM156.153 25.6577C156.153 24.9475 155.911 24.3827 155.426 23.963C154.942 23.5434 154.337 23.3336 153.611 23.3336C152.917 23.3336 152.328 23.5353 151.843 23.9388C151.375 24.3423 151.085 24.9153 150.972 25.6577H156.153Z" fill="white"/>
<rect x="165.735" y="20.8037" width="12.1683" height="11.6003" rx="1.57882" fill="white"/>
<path d="M171.458 28.2641H169.702L169.411 29.104H168.483L170.068 24.6896H171.098L172.683 29.104H171.748L171.458 28.2641ZM171.218 27.5568L170.58 25.7127L169.942 27.5568H171.218ZM173.724 25.1885C173.568 25.1885 173.437 25.1401 173.332 25.0433C173.231 24.9422 173.18 24.818 173.18 24.6707C173.18 24.5233 173.231 24.4012 173.332 24.3044C173.437 24.2034 173.568 24.1528 173.724 24.1528C173.879 24.1528 174.008 24.2034 174.109 24.3044C174.214 24.4012 174.267 24.5233 174.267 24.6707C174.267 24.818 174.214 24.9422 174.109 25.0433C174.008 25.1401 173.879 25.1885 173.724 25.1885ZM174.159 25.6053V29.104H173.275V25.6053H174.159Z" fill="#039BFA"/>
</svg>
